<svg xmlns="http://www.w3.org/2000/svg" xmlns:xlink="http://www.w3.org/1999/xlink" width="21.399902" height="24.000000" viewBox="0 0 21.3999 24" fill="none">
	<desc>
			Created with Pixso.
	</desc>
	<defs/>
	<path id="Vector" d="M0.699951 19.6392L0.699951 5.96387C0.699951 4.73657 1.69482 3.7417 2.92212 3.7417L18.4778 3.7417C19.7051 3.7417 20.7 4.73657 20.7 5.96387L20.7 15.4185C20.7 16.6459 19.7051 17.6407 18.4778 17.6407L6.2124 17.6407C5.53735 17.6407 4.47729 18.4747 4.47729 18.4747L1.88721 20.0557C1.88721 20.0557 0.699951 20.7213 0.699951 19.6392Z" fill="#4D4D4D" fill-opacity="1.000000" fill-rule="nonzero"/>
	<path id="Vector" d="M0.699951 5.96387C0.699951 4.73657 1.69482 3.7417 2.92212 3.7417L18.4778 3.7417C19.7051 3.7417 20.7 4.73657 20.7 5.96387L20.7 15.4185C20.7 16.6459 19.7051 17.6407 18.4778 17.6407L6.2124 17.6407C5.53735 17.6407 4.47729 18.4747 4.47729 18.4747L1.88721 20.0557C1.88721 20.0557 0.699951 20.7213 0.699951 19.6392L0.699951 5.96387Z" stroke="#4D4D4D" stroke-opacity="1.000000" stroke-width="1.400000"/>
	<path id="Vector" d="M5.19995 13L16.2 13" stroke="#FFFFFF" stroke-opacity="1.000000" stroke-width="1.400000" stroke-linejoin="round" stroke-linecap="round"/>
	<path id="Vector" d="M5.19995 9L14.2 9" stroke="#FFFFFF" stroke-opacity="1.000000" stroke-width="1.400000" stroke-linejoin="round" stroke-linecap="round"/>
</svg>