<svg xmlns="http://www.w3.org/2000/svg" xmlns:xlink="http://www.w3.org/1999/xlink" width="24.000000" height="24.000000" viewBox="0 0 24 24" fill="none">
	<desc>
			Created with Pixso.
	</desc>
	<defs/>
	<path id="home-alt" d="M6 22C4.34314 22 3 20.7654 3 19.2423L3 10.05C3 10.0188 3.00171 9.98804 3.005 9.95764L3 9.95764C3 9.42822 3.22882 8.92053 3.63605 8.54614L9.87866 2.80774C11.0502 1.73071 12.9498 1.73071 14.1213 2.80774L20.364 8.54614C20.7712 8.92053 21 9.42822 21 9.95764L20.995 9.95764C20.9983 9.98804 21 10.0188 21 10.05L21 19.2423C21 20.7654 19.6569 22 18 22L6 22ZM12.7071 4.10767L19 9.89233L19 19.2423C19 19.75 18.5523 20.1615 18 20.1615L15 20.1615L15 15.5654C15 14.0424 13.6569 12.8077 12 12.8077C10.3431 12.8077 9 14.0424 9 15.5654L9 20.1615L6 20.1615C5.44769 20.1615 5 19.75 5 19.2423L5 9.89233L11.2929 4.10767C11.6834 3.74866 12.3166 3.74866 12.7071 4.10767Z" fill="#4D4D4D" fill-opacity="1.000000" fill-rule="evenodd"/>
	<path id="home-alt" d="M19 9.89233L19 19.2423C19 19.75 18.5523 20.1615 18 20.1615L15 20.1615L15 15.5654C15 14.0424 13.6569 12.8077 12 12.8077C10.3431 12.8077 9 14.0424 9 15.5654L9 20.1615L6 20.1615C5.44769 20.1615 5 19.75 5 19.2423L5 9.89233L11.2929 4.10767C11.6834 3.74866 12.3166 3.74866 12.7071 4.10767L19 9.89233ZM3 19.2423L3 10.05C3 10.0188 3.00171 9.98804 3.005 9.95764L3 9.95764C3 9.42822 3.22882 8.92053 3.63605 8.54614L9.87866 2.80774C11.0502 1.73071 12.9498 1.73071 14.1213 2.80774L20.364 8.54614C20.7712 8.92053 21 9.42822 21 9.95764L20.995 9.95764C20.9983 9.98804 21 10.0188 21 10.05L21 19.2423C21 20.7654 19.6569 22 18 22L6 22C4.34314 22 3 20.7654 3 19.2423Z" stroke="#FCFCFC" stroke-opacity="1.000000" stroke-width="0.400000"/>
</svg>