<svg xmlns="http://www.w3.org/2000/svg" xmlns:xlink="http://www.w3.org/1999/xlink" width="18.000000" height="19.386963" viewBox="0 0 18 19.387" fill="none">
	<desc>
			Created with Pixso.
	</desc>
	<defs/>
	<path id="Vector 184" d="M6 19.3867C6 17.2758 6 16.4979 6 14.387C6 10.387 12 10.387 12 14.387L12 19.387L16 19.387C17.1046 19.387 18 18.4916 18 17.387L18 7.42017C18 7.125 17.8695 6.84485 17.6436 6.65479L10.2871 0.469238C9.54308 -0.156372 8.45692 -0.156372 7.71286 0.469238L0.35643 6.65479C0.130463 6.84485 0 7.125 0 7.42017L0 17.3867C0 18.4913 0.895432 19.3867 2 19.3867L6 19.3867Z" fill="#605464" fill-opacity="1.000000" fill-rule="evenodd"/>
</svg>